<svg xmlns="http://www.w3.org/2000/svg" viewBox="0 0 1440 1024" role="img" aria-labelledby="title desc">
  <title id="title">Room-first order entry screen</title>
  <desc id="desc">A tablet layout for Naud Tally with a room list, guest list, and dominant selected-guest order panel plus a host tools shortcut in the app bar, using firmer radii and subtle functional shadows.</desc>
  <defs>
    <style>
      .canvas { fill: #F4F2EE; }
      .surface { fill: #FBFAF8; stroke: #D7D0C7; stroke-width: 1; }
      .surface-soft { fill: #E8E3DC; stroke: #D7D0C7; stroke-width: 1; }
      .action { fill: #355061; }
      .action-soft { fill: #E6EDF1; stroke: #355061; stroke-width: 1; }
      .accent-soft { fill: #E7ECE5; stroke: #B8B0A6; stroke-width: 1; }
      .ink { fill: #1E2630; font-family: "Inter Tight", sans-serif; }
      .muted { fill: #67717A; font-family: "Inter Tight", sans-serif; }
      .label { font-size: 18px; font-weight: 600; letter-spacing: 0.04em; text-transform: uppercase; }
      .title { font-size: 32px; font-weight: 700; }
      .section { font-size: 24px; font-weight: 700; }
      .body { font-size: 18px; font-weight: 500; }
      .number { font-family: "Manrope", sans-serif; font-size: 38px; font-weight: 700; }
      .button-text { fill: #FBFAF8; font-size: 18px; font-weight: 700; font-family: "Inter Tight", sans-serif; }
      .card-title { font-size: 20px; font-weight: 700; }
      .small { font-size: 16px; font-weight: 500; }
    </style>
    <filter id="panelShadow" x="-10%" y="-10%" width="130%" height="140%">
      <feDropShadow dx="0" dy="7" stdDeviation="8" flood-color="#0A141E" flood-opacity="0.09"/>
    </filter>
    <filter id="cardShadow" x="-10%" y="-10%" width="130%" height="140%">
      <feDropShadow dx="0" dy="5" stdDeviation="6" flood-color="#0A141E" flood-opacity="0.06"/>
    </filter>
  </defs>

  <rect class="canvas" x="0" y="0" width="1440" height="1024" rx="0" />

  <rect class="surface" x="40" y="32" width="1360" height="80" rx="16" filter="url(#panelShadow)" />
  <text class="ink label" x="80" y="66">Host order entry</text>
  <text class="ink title" x="80" y="95">Naud Tally</text>
  <rect class="action" x="1210" y="48" width="150" height="48" rx="10" />
  <text class="button-text" x="1250" y="79">Host tools</text>

  <rect class="surface" x="40" y="144" width="220" height="840" rx="16" filter="url(#panelShadow)" />
  <text class="muted label" x="72" y="184">Rooms</text>
  <text class="ink section" x="72" y="220">Configured rooms</text>
  <rect class="accent-soft" x="64" y="248" width="172" height="72" rx="14" filter="url(#cardShadow)" />
  <text class="ink card-title" x="92" y="291">101</text>
  <text class="muted small" x="92" y="314">Selected room</text>
  <rect class="surface-soft" x="64" y="336" width="172" height="72" rx="14" filter="url(#cardShadow)" />
  <text class="ink card-title" x="92" y="379">102</text>
  <rect class="surface-soft" x="64" y="424" width="172" height="72" rx="14" filter="url(#cardShadow)" />
  <text class="ink card-title" x="92" y="467">103</text>
  <rect class="surface-soft" x="64" y="512" width="172" height="72" rx="14" filter="url(#cardShadow)" />
  <text class="ink card-title" x="92" y="555">104</text>

  <rect class="surface" x="284" y="144" width="360" height="840" rx="16" filter="url(#panelShadow)" />
  <text class="muted label" x="316" y="184">Guests</text>
  <text class="ink section" x="316" y="220">Room 101 guests</text>
  <rect class="action-soft" x="476" y="176" width="136" height="40" rx="10" />
  <text class="ink small" x="513" y="202">Add guest</text>

  <rect class="accent-soft" x="308" y="252" width="312" height="112" rx="14" filter="url(#cardShadow)" />
  <text class="ink card-title" x="336" y="294">Ada Lovelace</text>
  <text class="muted body" x="336" y="322">2 drinks recorded</text>
  <text class="ink number" x="532" y="323">€6.50</text>

  <rect class="surface-soft" x="308" y="380" width="312" height="112" rx="14" filter="url(#cardShadow)" />
  <text class="ink card-title" x="336" y="422">Grace Hopper</text>
  <text class="muted body" x="336" y="450">No drinks yet</text>
  <text class="ink number" x="548" y="451">€0.00</text>

  <rect class="surface-soft" x="308" y="520" width="312" height="154" rx="14" filter="url(#cardShadow)" />
  <text class="muted label" x="336" y="556">New guest</text>
  <text class="ink body" x="336" y="592">Full name</text>
  <rect class="surface" x="336" y="610" width="256" height="40" rx="8" />
  <text class="muted small" x="352" y="636">Enter guest name</text>

  <rect class="surface" x="668" y="144" width="732" height="840" rx="16" filter="url(#panelShadow)" />
  <text class="muted label" x="704" y="184">Selected guest</text>
  <text class="ink section" x="704" y="220">Ada Lovelace</text>
  <text class="muted body" x="704" y="250">Room 101</text>

  <rect class="action-soft" x="1188" y="176" width="176" height="84" rx="14" filter="url(#cardShadow)" />
  <text class="muted label" x="1218" y="208">Running total</text>
  <text class="ink number" x="1218" y="244">€6.50</text>

  <text class="ink section" x="704" y="312">Quick drinks</text>
  <rect class="surface-soft" x="704" y="340" width="212" height="158" rx="14" filter="url(#cardShadow)" />
  <text class="ink card-title" x="732" y="382">Water</text>
  <text class="muted body" x="732" y="412">€2.00</text>
  <text class="ink number" x="736" y="466">1</text>
  <rect class="action" x="820" y="434" width="64" height="44" rx="10" />
  <text class="button-text" x="845" y="462">+</text>
  <rect class="surface" x="744" y="434" width="64" height="44" rx="10" />
  <text class="ink body" x="770" y="462">−</text>

  <rect class="surface-soft" x="936" y="340" width="212" height="158" rx="14" filter="url(#cardShadow)" />
  <text class="ink card-title" x="964" y="382">Beer</text>
  <text class="muted body" x="964" y="412">€4.50</text>
  <text class="ink number" x="968" y="466">1</text>
  <rect class="action" x="1052" y="434" width="64" height="44" rx="10" />
  <text class="button-text" x="1077" y="462">+</text>
  <rect class="surface" x="976" y="434" width="64" height="44" rx="10" />
  <text class="ink body" x="1002" y="462">−</text>

  <rect class="surface-soft" x="1168" y="340" width="196" height="158" rx="14" filter="url(#cardShadow)" />
  <text class="ink card-title" x="1196" y="382">Cola</text>
  <text class="muted body" x="1196" y="412">€3.00</text>
  <text class="ink number" x="1200" y="466">0</text>
  <rect class="action" x="1272" y="434" width="64" height="44" rx="10" />
  <text class="button-text" x="1297" y="462">+</text>

  <rect class="surface-soft" x="704" y="522" width="212" height="158" rx="14" filter="url(#cardShadow)" />
  <text class="ink card-title" x="732" y="564">Sparkling Water</text>
  <text class="muted body" x="732" y="594">€2.50</text>
  <text class="ink number" x="736" y="648">0</text>
  <rect class="action" x="820" y="616" width="64" height="44" rx="10" />
  <text class="button-text" x="845" y="644">+</text>

  <rect class="surface-soft" x="936" y="522" width="212" height="158" rx="14" filter="url(#cardShadow)" />
  <text class="ink card-title" x="964" y="564">Lemon Soda</text>
  <text class="muted body" x="964" y="594">€3.00</text>
  <text class="ink number" x="968" y="648">0</text>
  <rect class="action" x="1052" y="616" width="64" height="44" rx="10" />
  <text class="button-text" x="1077" y="644">+</text>

  <rect class="surface-soft" x="1168" y="522" width="196" height="158" rx="14" filter="url(#cardShadow)" />
  <text class="ink card-title" x="1196" y="564">White Wine</text>
  <text class="muted body" x="1196" y="594">€5.00</text>
  <text class="ink number" x="1200" y="648">0</text>
  <rect class="action" x="1272" y="616" width="64" height="44" rx="10" />
  <text class="button-text" x="1297" y="644">+</text>

  <rect class="surface-soft" x="704" y="714" width="660" height="228" rx="14" filter="url(#cardShadow)" />
  <text class="muted label" x="736" y="752">Empty state variant</text>
  <text class="ink section" x="736" y="792">No rooms configured yet</text>
  <text class="muted body" x="736" y="826">Show this instead of the room rail and guest list when setup is incomplete.</text>
  <rect class="action" x="736" y="854" width="190" height="52" rx="10" />
  <text class="button-text" x="772" y="887">Open host tools</text>
</svg>
